<svg width="125" height="58" viewBox="0 0 125 58" fill="none" xmlns="http://www.w3.org/2000/svg">
<path d="M0 0H125V57.5H0V0Z" fill="white"/>
<path fill-rule="evenodd" clip-rule="evenodd" d="M120 5H5V52.5H120V5ZM0 0V57.5H125V0H0Z" fill="#E66767"/>
<path d="M17.7637 36.1621C17.9199 36.2109 18.0762 36.2451 18.2324 36.2646C18.3887 36.2744 18.5449 36.2793 18.7012 36.2793C19.0918 36.2793 19.4678 36.2256 19.8291 36.1182C20.1904 36.0107 20.5273 35.8594 20.8398 35.6641C21.1621 35.459 21.4453 35.2148 21.6895 34.9316C21.9434 34.6387 22.1484 34.3164 22.3047 33.9648L25.2344 36.9092C24.8633 37.4365 24.4336 37.9102 23.9453 38.3301C23.4668 38.75 22.9443 39.1064 22.3779 39.3994C21.8213 39.6924 21.2305 39.9121 20.6055 40.0586C19.9902 40.2148 19.3555 40.293 18.7012 40.293C17.5977 40.293 16.5576 40.0879 15.5811 39.6777C14.6143 39.2676 13.7646 38.6963 13.0322 37.9639C12.3096 37.2314 11.7383 36.3623 11.3184 35.3564C10.8984 34.3408 10.6885 33.2275 10.6885 32.0166C10.6885 30.7764 10.8984 29.6436 11.3184 28.6182C11.7383 27.5928 12.3096 26.7188 13.0322 25.9961C13.7646 25.2734 14.6143 24.7119 15.5811 24.3115C16.5576 23.9111 17.5977 23.7109 18.7012 23.7109C19.3555 23.7109 19.9951 23.7891 20.6201 23.9453C21.2451 24.1016 21.8359 24.3262 22.3926 24.6191C22.959 24.9121 23.4863 25.2734 23.9746 25.7031C24.4629 26.123 24.8926 26.5967 25.2637 27.124L17.7637 36.1621ZM19.8145 27.915C19.6289 27.8467 19.4434 27.8027 19.2578 27.7832C19.082 27.7637 18.8965 27.7539 18.7012 27.7539C18.1543 27.7539 17.6367 27.8564 17.1484 28.0615C16.6699 28.2568 16.25 28.54 15.8887 28.9111C15.5371 29.2822 15.2588 29.7314 15.0537 30.2588C14.8486 30.7764 14.7461 31.3623 14.7461 32.0166C14.7461 32.1631 14.751 32.3291 14.7607 32.5146C14.7803 32.7002 14.8047 32.8906 14.834 33.0859C14.873 33.2715 14.917 33.4521 14.9658 33.6279C15.0146 33.8037 15.0781 33.96 15.1562 34.0967L19.8145 27.915Z" fill="#E66767"/>
<path d="M32.3682 40H28.3691V28.2959H26.4209V24.3115H28.3691V23.5645C28.3691 22.5977 28.5498 21.6895 28.9111 20.8398C29.2822 19.9902 29.7852 19.2529 30.4199 18.6279C31.0645 17.9932 31.8115 17.4951 32.6611 17.1338C33.5107 16.7627 34.4189 16.5771 35.3857 16.5771H38.3887V20.5615H35.3857C34.9561 20.5615 34.5557 20.6396 34.1846 20.7959C33.8232 20.9424 33.5059 21.1523 33.2324 21.4258C32.9688 21.6895 32.7588 22.0068 32.6025 22.3779C32.4463 22.7393 32.3682 23.1348 32.3682 23.5645V24.3115H37.2754V28.2959H32.3682V40Z" fill="#E66767"/>
<path d="M54.0479 32.0166C54.0479 33.1885 53.8379 34.2822 53.418 35.2979C52.998 36.3037 52.4268 37.1777 51.7041 37.9199C50.9814 38.6523 50.1318 39.2334 49.1553 39.6631C48.1885 40.083 47.1484 40.293 46.0352 40.293C44.9316 40.293 43.8916 40.083 42.915 39.6631C41.9482 39.2334 41.0986 38.6523 40.3662 37.9199C39.6436 37.1777 39.0723 36.3037 38.6523 35.2979C38.2324 34.2822 38.0225 33.1885 38.0225 32.0166C38.0225 30.8252 38.2324 29.7217 38.6523 28.7061C39.0723 27.6904 39.6436 26.8164 40.3662 26.084C41.0986 25.3418 41.9482 24.7607 42.915 24.3408C43.8916 23.9209 44.9316 23.7109 46.0352 23.7109C47.1484 23.7109 48.1885 23.9111 49.1553 24.3115C50.1318 24.7021 50.9814 25.2637 51.7041 25.9961C52.4268 26.7188 52.998 27.5928 53.418 28.6182C53.8379 29.6338 54.0479 30.7666 54.0479 32.0166ZM50.0195 32.0166C50.0195 31.3721 49.9121 30.791 49.6973 30.2734C49.4922 29.7461 49.209 29.2969 48.8477 28.9258C48.4863 28.5449 48.0615 28.2568 47.5732 28.0615C47.0947 27.8564 46.582 27.7539 46.0352 27.7539C45.4883 27.7539 44.9707 27.8564 44.4824 28.0615C44.0039 28.2568 43.584 28.5449 43.2227 28.9258C42.8711 29.2969 42.5928 29.7461 42.3877 30.2734C42.1826 30.791 42.0801 31.3721 42.0801 32.0166C42.0801 32.6221 42.1826 33.1836 42.3877 33.7012C42.5928 34.2188 42.8711 34.668 43.2227 35.0488C43.584 35.4297 44.0039 35.7324 44.4824 35.957C44.9707 36.1719 45.4883 36.2793 46.0352 36.2793C46.582 36.2793 47.0947 36.1768 47.5732 35.9717C48.0615 35.7666 48.4863 35.4785 48.8477 35.1074C49.209 34.7363 49.4922 34.2871 49.6973 33.7598C49.9121 33.2324 50.0195 32.6514 50.0195 32.0166Z" fill="#E66767"/>
<path d="M71.4209 32.0166C71.4209 33.1885 71.2109 34.2822 70.791 35.2979C70.3711 36.3037 69.7998 37.1777 69.0771 37.9199C68.3545 38.6523 67.5049 39.2334 66.5283 39.6631C65.5615 40.083 64.5215 40.293 63.4082 40.293C62.3047 40.293 61.2646 40.083 60.2881 39.6631C59.3213 39.2334 58.4717 38.6523 57.7393 37.9199C57.0166 37.1777 56.4453 36.3037 56.0254 35.2979C55.6055 34.2822 55.3955 33.1885 55.3955 32.0166C55.3955 30.8252 55.6055 29.7217 56.0254 28.7061C56.4453 27.6904 57.0166 26.8164 57.7393 26.084C58.4717 25.3418 59.3213 24.7607 60.2881 24.3408C61.2646 23.9209 62.3047 23.7109 63.4082 23.7109C64.5215 23.7109 65.5615 23.9111 66.5283 24.3115C67.5049 24.7021 68.3545 25.2637 69.0771 25.9961C69.7998 26.7188 70.3711 27.5928 70.791 28.6182C71.2109 29.6338 71.4209 30.7666 71.4209 32.0166ZM67.3926 32.0166C67.3926 31.3721 67.2852 30.791 67.0703 30.2734C66.8652 29.7461 66.582 29.2969 66.2207 28.9258C65.8594 28.5449 65.4346 28.2568 64.9463 28.0615C64.4678 27.8564 63.9551 27.7539 63.4082 27.7539C62.8613 27.7539 62.3438 27.8564 61.8555 28.0615C61.377 28.2568 60.957 28.5449 60.5957 28.9258C60.2441 29.2969 59.9658 29.7461 59.7607 30.2734C59.5557 30.791 59.4531 31.3721 59.4531 32.0166C59.4531 32.6221 59.5557 33.1836 59.7607 33.7012C59.9658 34.2188 60.2441 34.668 60.5957 35.0488C60.957 35.4297 61.377 35.7324 61.8555 35.957C62.3438 36.1719 62.8613 36.2793 63.4082 36.2793C63.9551 36.2793 64.4678 36.1768 64.9463 35.9717C65.4346 35.7666 65.8594 35.4785 66.2207 35.1074C66.582 34.7363 66.8652 34.2871 67.0703 33.7598C67.2852 33.2324 67.3926 32.6514 67.3926 32.0166Z" fill="#E66767"/>
<path d="M88.7939 40H87.8271L86.2744 37.8467C85.8936 38.1885 85.4883 38.5107 85.0586 38.8135C84.6387 39.1064 84.1943 39.3652 83.7256 39.5898C83.2568 39.8047 82.7734 39.9756 82.2754 40.1025C81.7871 40.2295 81.2891 40.293 80.7812 40.293C79.6777 40.293 78.6377 40.0879 77.6611 39.6777C76.6943 39.2578 75.8447 38.6816 75.1123 37.9492C74.3896 37.207 73.8184 36.333 73.3984 35.3271C72.9785 34.3115 72.7686 33.208 72.7686 32.0166C72.7686 30.835 72.9785 29.7363 73.3984 28.7207C73.8184 27.7051 74.3896 26.8262 75.1123 26.084C75.8447 25.3418 76.6943 24.7607 77.6611 24.3408C78.6377 23.9209 79.6777 23.7109 80.7812 23.7109C81.1328 23.7109 81.4941 23.7402 81.8652 23.7988C82.2461 23.8574 82.6123 23.9551 82.9639 24.0918C83.3252 24.2188 83.6621 24.3896 83.9746 24.6045C84.2871 24.8193 84.5508 25.083 84.7656 25.3955V18.0713H88.7939V40ZM84.7656 32.0166C84.7656 31.4697 84.6582 30.9424 84.4434 30.4346C84.2383 29.917 83.9551 29.4629 83.5938 29.0723C83.2324 28.6719 82.8076 28.3545 82.3193 28.1201C81.8408 27.876 81.3281 27.7539 80.7812 27.7539C80.2344 27.7539 79.7168 27.8516 79.2285 28.0469C78.75 28.2422 78.3301 28.5254 77.9688 28.8965C77.6172 29.2578 77.3389 29.7021 77.1338 30.2295C76.9287 30.7568 76.8262 31.3525 76.8262 32.0166C76.8262 32.5928 76.9287 33.1396 77.1338 33.6572C77.3389 34.1748 77.6172 34.6289 77.9688 35.0195C78.3301 35.4102 78.75 35.7178 79.2285 35.9424C79.7168 36.167 80.2344 36.2793 80.7812 36.2793C81.3281 36.2793 81.8408 36.1621 82.3193 35.9277C82.8076 35.6836 83.2324 35.3662 83.5938 34.9756C83.9551 34.5752 84.2383 34.1211 84.4434 33.6133C84.6582 33.0957 84.7656 32.5635 84.7656 32.0166Z" fill="#E66767"/>
<path d="M115.993 39.514L114.617 29.1945H114.655C115.059 29.1945 115.387 28.867 115.387 28.463V13.5875C115.387 13.3305 115.253 13.0933 115.033 12.9609C114.813 12.8285 114.541 12.8206 114.314 12.9403C111.461 14.4455 109.676 17.4052 109.676 20.6316V26.9038C109.676 28.1687 110.701 29.1945 111.967 29.1945H112.14L110.764 39.5139C110.664 40.267 110.894 41.0281 111.394 41.5997C111.895 42.1715 112.619 42.4999 113.379 42.4999C114.139 42.4999 114.862 42.1715 115.363 41.5997C115.864 41.0281 116.093 40.2671 115.993 39.514Z" fill="#E66767"/>
<path d="M104.529 12.5C103.974 12.5 103.525 12.9492 103.525 13.5041V19.1134H102.521V13.5041C102.521 12.9492 102.072 12.5 101.517 12.5C100.962 12.5 100.513 12.9492 100.513 13.5041V19.1134H99.5084V13.5041C99.5083 12.9492 99.0592 12.5 98.5042 12.5C97.9491 12.5 97.5 12.9492 97.5 13.5041V22.5673C97.5 24.0569 98.7071 25.264 100.197 25.264H100.419L98.8366 39.5061C98.7523 40.268 98.9964 41.03 99.5073 41.6018C100.019 42.1735 100.75 42.5 101.517 42.5C102.284 42.5 103.014 42.1735 103.526 41.6018C104.037 41.03 104.281 40.268 104.197 39.5061L102.614 25.2641H102.837C104.326 25.2641 105.534 24.057 105.534 22.5674V13.5041C105.533 12.9492 105.084 12.5 104.529 12.5Z" fill="#E66767"/>
</svg>
