<svg width="78" height="32" viewBox="0 0 78 32" fill="none" xmlns="http://www.w3.org/2000/svg">
<path d="M0 0H77.1213V28.7866H0V0Z" fill="#333333"/>
<path fill-rule="evenodd" clip-rule="evenodd" d="M74.9791 2.14226H2.14226V26.6444H74.9791V2.14226ZM0 0V28.7866H77.1213V0H0Z" fill="white"/>
<path d="M6.0251 19.2803V8.03347H17.272V9.64017H9.23849V12.8536H15.6653V14.4603H9.23849V17.6736H17.272V19.2803H6.0251Z" fill="white"/>
<path d="M18.8787 19.2803V8.03347H28.5188V9.64017H30.1255V14.4603H28.5188V16.0669H22.0921V19.2803H18.8787ZM22.0921 14.4603H26.9121V9.64017H22.0921V14.4603Z" fill="white"/>
<path d="M33.3389 19.2803V8.03347H36.5523V17.6736H42.9791V19.2803H33.3389Z" fill="white"/>
<path d="M44.5858 19.2803V11.2469H46.1925V9.64017H47.7992V8.03347H52.6192V9.64017H54.2259V11.2469H55.8326V19.2803H52.6192V16.0669H47.7992V19.2803H44.5858ZM47.7992 14.4603H52.6192V11.2469H51.0126V9.64017H49.4059V11.2469H47.7992V14.4603Z" fill="white"/>
<path d="M62.2594 19.2803V14.4603H60.6527V12.8536H59.046V8.03347H62.2594V12.8536H65.4728V8.03347H68.6862V12.8536H67.0795V14.4603H65.4728V19.2803H62.2594Z" fill="white"/>
<path d="M0 28.7866H77.1213V32H0V28.7866Z" fill="white"/>
</svg>
